<?xml version="1.0" standalone="no"?>
<!DOCTYPE svg PUBLIC "-//W3C//DTD SVG 20010904//EN"
 "http://www.w3.org/TR/2001/REC-SVG-20010904/DTD/svg10.dtd">
<svg version="1.0" xmlns="http://www.w3.org/2000/svg"
 width="107.000000pt" height="70.000000pt" viewBox="0 0 107.000000 70.000000"
 preserveAspectRatio="xMidYMid meet">

<g transform="translate(0.000000,70.000000) scale(0.100000,-0.100000)"
fill="#000000" stroke="none">
<path d="M116 501 c-9 -10 -39 -75 -65 -145 l-49 -126 38 0 c35 0 40 3 51 35
13 35 14 35 72 35 57 0 58 -1 73 -35 13 -32 18 -35 55 -35 47 0 47 -1 -1 110
-16 36 -38 91 -50 123 l-21 57 -43 0 c-29 0 -48 -6 -60 -19z m79 -119 c7 -32
6 -32 -33 -32 l-39 0 20 61 20 62 12 -30 c7 -16 16 -44 20 -61z"/>
<path d="M364 485 c-9 -23 -14 -71 -14 -145 l0 -110 99 0 c84 0 102 3 125 21
19 15 26 30 26 55 0 44 -15 74 -37 74 -14 0 -13 4 5 20 26 24 29 66 6 98 -14
20 -23 22 -105 22 l-90 0 -15 -35z m151 -35 c10 -31 -2 -40 -51 -40 -42 0 -44
1 -44 30 0 29 2 30 44 30 36 0 46 -4 51 -20z m-4 -100 c45 -25 5 -70 -61 -70
-28 0 -30 2 -30 40 0 39 1 40 36 40 19 0 44 -5 55 -10z"/>
<path d="M671 506 c-10 -12 -40 -205 -41 -263 0 -8 13 -13 34 -13 l34 0 8 93
7 92 25 -80 c13 -44 26 -86 28 -93 3 -9 19 -12 50 -10 l47 3 23 83 c12 46 24
86 27 88 2 3 8 -36 11 -86 l8 -90 34 0 34 0 -6 73 c-10 121 -22 187 -38 202
-8 8 -30 15 -48 15 l-33 0 -29 -102 c-33 -113 -30 -114 -69 17 -24 79 -25 80
-59 83 -22 2 -39 -3 -47 -12z"/>
<path d="M350 80 c0 -42 3 -50 19 -50 27 0 41 21 36 55 -2 17 -4 33 -4 38 -1
4 -12 7 -26 7 -23 0 -25 -3 -25 -50z m40 25 c0 -8 -7 -15 -15 -15 -8 0 -15 7
-15 15 0 8 7 15 15 15 8 0 15 -7 15 -15z m0 -40 c0 -8 -7 -15 -15 -15 -8 0
-15 7 -15 15 0 8 7 15 15 15 8 0 15 -7 15 -15z"/>
<path d="M570 115 c0 -8 -6 -15 -14 -15 -21 0 -29 -17 -22 -45 4 -16 13 -23
26 -22 17 1 20 8 20 49 0 26 -2 48 -5 48 -3 0 -5 -7 -5 -15z m-2 -48 c2 -10
-3 -17 -12 -17 -10 0 -16 9 -16 21 0 24 23 21 28 -4z"/>
<path d="M761 98 c6 -18 13 -41 16 -51 5 -15 8 -16 14 -5 5 7 9 20 9 28 0 12
-2 13 -9 1 -7 -10 -11 -5 -16 18 -3 17 -10 33 -15 36 -5 3 -4 -9 1 -27z"/>
<path d="M800 110 c0 -11 2 -20 4 -20 2 0 6 9 9 20 3 11 1 20 -4 20 -5 0 -9
-9 -9 -20z"/>
<path d="M873 85 c0 -27 2 -38 4 -22 2 15 2 37 0 50 -2 12 -4 0 -4 -28z"/>
<path d="M421 67 c-1 -32 2 -38 17 -35 12 2 17 13 18 38 1 26 1 28 -3 8 -6
-36 -20 -36 -26 0 -3 21 -4 19 -6 -11z"/>
<path d="M483 65 c0 -22 2 -30 4 -17 2 12 2 30 0 40 -3 9 -5 -1 -4 -23z"/>
<path d="M590 67 c0 -20 4 -37 10 -37 5 0 7 14 3 33 -8 45 -13 47 -13 4z"/>
<path d="M622 63 c1 -37 1 -37 5 -5 2 17 8 32 13 32 5 0 11 -15 13 -32 4 -32
4 -32 5 5 2 31 -1 37 -18 37 -17 0 -20 -6 -18 -37z"/>
<path d="M680 65 c0 -24 5 -35 15 -35 8 0 15 -5 15 -11 0 -6 -7 -9 -15 -5 -8
3 -15 1 -15 -4 0 -16 37 -11 44 6 4 11 -1 18 -14 21 -17 5 -18 7 -7 17 8 6 17
19 20 29 5 13 1 17 -18 17 -22 0 -25 -4 -25 -35z m30 16 c0 -6 -4 -13 -10 -16
-5 -3 -10 1 -10 9 0 9 5 16 10 16 6 0 10 -4 10 -9z"/>
<path d="M828 93 c10 -4 10 -8 1 -19 -10 -12 -9 -13 5 -8 9 3 16 1 16 -5 0 -6
-7 -11 -15 -11 -8 0 -15 -4 -15 -10 0 -5 9 -10 20 -10 13 0 20 7 20 19 0 32
-11 51 -29 50 -11 0 -12 -2 -3 -6z"/>
<path d="M901 68 c-1 -32 2 -38 19 -38 17 0 20 6 19 38 -2 30 -3 32 -6 10 -6
-36 -20 -36 -26 0 -3 22 -4 20 -6 -10z"/>
<path d="M955 79 c-8 -25 16 -56 36 -43 9 5 8 9 -7 15 -17 7 -18 8 -1 8 12 1
17 7 15 18 -5 26 -35 28 -43 2z m35 1 c0 -5 -4 -10 -10 -10 -5 0 -10 5 -10 10
0 6 5 10 10 10 6 0 10 -4 10 -10z"/>
</g>
</svg>
